<?xml version="1.0" standalone="no"?>
<!DOCTYPE svg PUBLIC "-//W3C//DTD SVG 20010904//EN"
 "http://www.w3.org/TR/2001/REC-SVG-20010904/DTD/svg10.dtd">
<svg version="1.0" xmlns="http://www.w3.org/2000/svg"
 width="741.000000pt" height="741.000000pt" viewBox="0 0 741.000000 741.000000"
 preserveAspectRatio="xMidYMid meet">
<metadata>
Created by potrace 1.10, written by Peter Selinger 2001-2011
</metadata>
<g transform="translate(0.000000,741.000000) scale(0.100000,-0.100000)"
fill="#e1d600" stroke="none">
<path d="M1200 6998 c-68 -79 -93 -199 -64 -303 5 -18 4 -18 -8 -5 -22 22 -85
216 -92 279 -7 65 -16 77 -45 61 -32 -17 -40 -47 -43 -167 -1 -82 2 -120 15
-157 19 -52 17 -72 -4 -34 -30 57 -192 269 -202 265 -7 -2 -13 -32 -15 -75 -3
-66 0 -76 37 -149 22 -43 49 -91 60 -108 46 -66 15 -44 -112 83 -123 122 -157
149 -157 121 0 -12 116 -237 132 -256 17 -21 1 -15 -73 27 -89 50 -116 42 -67
-20 13 -16 39 -50 58 -76 19 -26 42 -54 50 -62 13 -13 11 -14 -15 -8 -68 17
-95 18 -95 5 0 -7 20 -45 45 -85 25 -39 45 -74 45 -77 0 -2 -20 -2 -45 1 -60
6 -67 -13 -26 -72 17 -24 31 -49 31 -55 0 -6 -16 -11 -35 -11 -24 0 -35 -5
-35 -15 0 -13 56 -86 72 -93 13 -6 9 -22 -5 -22 -8 0 -21 -8 -30 -18 -15 -16
-13 -20 25 -61 44 -46 45 -42 -14 -78 -35 -22 -36 -46 -2 -68 l25 -16 -25 -34
c-32 -41 -32 -49 -4 -67 21 -14 22 -18 9 -41 -16 -30 -9 -57 14 -57 12 0 15
-6 9 -22 -13 -41 -9 -51 23 -62 31 -11 31 -11 17 -45 -8 -18 -14 -42 -14 -53
0 -16 5 -18 35 -12 l35 6 0 -42 0 -42 35 4 35 4 0 -44 c0 -43 0 -43 29 -37 28
6 29 5 35 -49 6 -41 12 -57 26 -61 19 -6 30 -33 30 -77 0 -26 3 -28 39 -28 67
0 102 -11 111 -35 5 -13 15 -26 22 -29 15 -7 -32 -1 -117 14 -33 6 -78 14
-100 17 -22 3 -113 41 -203 84 l-164 79 -64 -30 c-62 -28 -75 -42 -54 -55 15
-9 12 -25 -4 -25 -25 0 -27 -16 -6 -61 26 -57 25 -61 -10 -81 -38 -22 -49 -47
-26 -60 16 -9 16 -12 -6 -35 -21 -23 -22 -25 -6 -34 32 -18 40 -46 22 -74 -16
-24 -16 -27 2 -40 19 -13 19 -14 0 -28 -19 -14 -18 -15 13 -55 31 -38 32 -42
20 -76 -12 -34 -11 -36 16 -58 16 -13 32 -25 36 -28 4 -3 9 -32 11 -64 3 -57
4 -59 37 -70 30 -9 36 -17 47 -59 13 -52 29 -77 49 -77 10 0 11 -8 2 -36 -10
-32 -9 -38 7 -50 11 -7 22 -11 26 -9 4 3 21 0 37 -6 23 -7 32 -19 39 -47 7
-30 14 -38 37 -40 15 -2 33 -12 40 -23 6 -10 22 -19 34 -19 12 0 30 -11 40
-26 16 -21 22 -24 43 -16 21 8 30 5 53 -16 24 -23 30 -25 48 -14 16 10 20 10
24 -3 3 -8 7 -22 10 -31 3 -8 13 -14 22 -12 10 2 23 -3 30 -12 10 -13 19 -11
77 17 36 18 66 38 66 44 0 7 39 132 87 279 l87 268 25 -10 c26 -9 27 -9 56 35
6 9 25 18 44 22 29 6 33 5 27 -10 -4 -12 2 -20 24 -28 26 -10 30 -16 30 -48 0
-31 4 -38 25 -43 16 -4 25 -13 25 -27 0 -15 13 -26 50 -41 45 -19 50 -23 47
-50 -2 -34 6 -40 71 -58 36 -9 44 -16 49 -41 3 -16 11 -33 17 -36 11 -7 15 -8
67 -11 23 -2 28 -9 38 -48 l12 -45 47 2 c46 3 46 3 55 -34 9 -37 9 -37 60 -37
47 0 54 -3 69 -30 15 -26 23 -30 62 -30 42 0 46 -3 62 -35 18 -38 40 -44 91
-24 26 10 31 8 65 -31 l37 -41 69 24 68 25 33 -49 c18 -28 36 -49 39 -47 67
34 59 35 110 -15 26 -26 53 -47 59 -47 7 0 20 13 30 30 9 17 20 30 23 30 3 0
39 -29 80 -65 41 -35 80 -64 87 -65 7 0 17 18 23 40 l11 41 97 -90 c53 -50
104 -91 113 -91 9 0 22 11 29 25 7 14 18 25 23 25 5 0 54 -23 108 -51 129 -68
143 -63 93 31 -20 39 -35 73 -32 75 2 2 20 -6 39 -19 19 -13 66 -40 104 -61
39 -21 87 -49 107 -62 41 -25 54 -28 63 -14 6 11 -49 101 -107 174 -21 27 -38
52 -38 57 0 4 30 -2 68 -15 215 -72 319 -105 330 -105 39 0 -7 39 -148 126
-88 53 -158 99 -156 101 1 2 62 -10 134 -26 l130 -30 72 17 c63 15 93 33 78
47 -3 3 -51 10 -108 15 -94 10 -110 15 -174 53 l-71 42 65 6 c36 4 92 7 125 8
51 1 69 7 120 39 33 20 77 46 98 57 21 11 37 27 37 37 0 23 25 25 -200 -21
-69 -15 -117 -20 -140 -15 -19 4 -44 9 -55 11 -11 3 -25 6 -32 7 -33 6 -18 15
38 21 l62 7 111 105 c61 58 112 109 114 114 9 24 -31 16 -89 -17 -181 -103
-204 -111 -336 -118 -110 -6 -124 -5 -140 12 -22 22 -90 72 -97 72 -3 0 -32
17 -63 37 -32 21 -66 42 -75 48 -10 5 -61 37 -113 70 -53 33 -104 65 -113 70
-9 6 -43 27 -75 48 -31 20 -60 37 -63 37 -3 0 -20 11 -37 24 -18 13 -54 31
-82 41 -27 10 -151 63 -275 118 -124 55 -260 115 -302 133 -121 52 -131 59
-194 135 -32 39 -65 77 -72 85 -19 20 18 80 48 76 21 -2 62 22 104 59 10 10
23 16 30 14 6 -2 23 -6 38 -9 23 -5 27 -12 30 -48 3 -49 31 -66 43 -26 4 13
13 37 21 55 14 31 13 36 -15 90 -92 176 -126 200 -304 210 -78 5 -78 4 -159
-41 -48 -28 -93 -46 -112 -46 -27 0 -34 6 -58 53 -15 28 -41 99 -58 157 -18
58 -42 132 -55 165 -12 33 -30 87 -40 120 -9 33 -26 81 -36 107 -10 26 -48
131 -83 235 -35 103 -73 214 -84 245 -25 71 -33 287 -13 358 7 25 14 52 16 60
2 8 13 53 25 99 27 102 19 115 -40 69 -32 -25 -55 -57 -90 -127 -26 -51 -46
-101 -43 -110 2 -9 0 -27 -5 -41 -9 -24 -10 -23 -18 15 -9 38 -10 273 -3 325
7 42 -23 33 -71 -22z m-191 -73 c2 -78 114 -316 229 -487 40 -59 72 -113 72
-119 0 -7 -37 23 -83 67 -45 43 -107 102 -139 131 -55 51 -57 55 -82 153 -26
101 -32 184 -19 276 5 36 8 43 14 29 4 -11 8 -33 8 -50z m251 -304 c17 -80 29
-115 40 -118 8 -3 28 -33 44 -69 24 -53 27 -66 16 -79 -7 -9 -17 -14 -21 -13
-4 2 -41 53 -82 114 -74 110 -81 129 -92 239 -1 6 -4 31 -9 56 -5 36 -2 63 15
115 12 38 29 79 38 90 15 20 16 14 21 -100 3 -70 16 -169 30 -235z m186 301
c-2 -4 -18 -61 -35 -126 -32 -123 -37 -191 -23 -333 9 -82 4 -82 -29 -3 -12
30 -27 60 -34 65 -8 7 -10 39 -5 110 6 95 9 104 55 190 42 78 61 104 73 105 2
0 1 -4 -2 -8z m-425 -377 c12 -11 76 -69 141 -130 158 -146 132 -150 -78 -11
-87 58 -161 107 -164 108 -3 2 -35 65 -72 141 -51 102 -68 148 -68 179 l0 41
109 -154 c60 -85 119 -163 132 -174z m-149 -35 c4 0 80 -49 170 -109 90 -59
173 -114 186 -120 19 -10 21 -15 11 -27 -10 -12 -25 -7 -98 33 -186 102 -229
125 -302 163 -42 21 -79 47 -82 57 -3 10 -31 65 -62 123 l-56 105 113 -112
c62 -62 116 -113 120 -113z m428 99 c0 -11 -4 -17 -10 -14 -5 3 -10 13 -10 21
0 8 5 14 10 14 6 0 10 -9 10 -21z m-627 -85 c29 -14 59 -34 67 -44 8 -10 119
-73 245 -140 127 -67 231 -123 232 -124 1 0 -7 -11 -17 -24 l-19 -23 -229 111
-228 112 -57 79 c-30 43 -54 79 -51 79 3 0 28 -12 57 -26z m57 -169 c121 -51
430 -205 430 -215 0 -13 11 -16 -177 36 -92 25 -174 47 -183 49 -94 19 -109
27 -136 74 -15 25 -34 57 -43 70 -15 23 -15 23 20 16 18 -4 59 -18 89 -30z
m704 -50 l7 -30 -21 34 c-12 19 -18 40 -15 50 6 14 8 13 15 -4 4 -11 10 -33
14 -50z m-13 -41 c22 -37 38 -68 36 -70 -1 -2 -27 24 -57 56 -48 52 -53 61
-40 73 8 8 17 13 18 11 2 -1 22 -33 43 -70z m77 -150 c-3 -3 -41 23 -84 58
-44 35 -90 71 -104 81 -23 16 -24 19 -8 31 14 10 29 0 109 -76 51 -48 90 -90
87 -94z m-101 45 c108 -84 141 -115 131 -124 -7 -7 -267 190 -268 203 0 23 20
12 137 -79z m-683 61 c40 -12 141 -40 296 -81 69 -18 126 -33 128 -34 9 -7
-24 -55 -35 -51 -7 3 -71 15 -141 26 -70 11 -149 24 -177 29 -27 6 -69 13 -93
16 -36 6 -46 13 -67 49 -14 24 -25 46 -25 49 0 10 79 8 114 -3z m680 -120
c130 -94 164 -125 153 -137 -2 -2 -76 42 -163 97 -87 55 -163 101 -168 103 -5
2 -3 13 5 25 8 12 17 21 21 20 4 -2 73 -50 152 -108z m-13 -69 c90 -55 171
-104 179 -109 8 -5 12 -13 8 -17 -4 -4 -31 7 -60 25 -29 18 -69 42 -88 53 -19
10 -80 44 -135 75 -55 31 -102 57 -104 58 -8 6 12 25 24 21 6 -3 86 -50 176
-106z m-651 58 c36 -6 76 -12 90 -14 45 -6 275 -47 277 -49 1 -1 0 -12 -4 -24
-5 -21 -9 -22 -87 -17 -44 4 -119 11 -165 16 -47 6 -109 9 -139 8 -54 -3 -56
-2 -83 37 l-27 39 31 6 c18 4 34 7 37 8 3 0 34 -4 70 -10z m545 -56 c111 -61
137 -85 58 -54 -134 53 -183 73 -183 76 0 8 13 35 17 35 2 0 51 -26 108 -57z
m-21 -50 c113 -41 112 -41 103 -49 -3 -4 -46 3 -94 14 -48 11 -103 23 -120 27
-29 6 -32 9 -23 26 6 10 16 19 22 19 6 0 56 -17 112 -37z m-282 -24 c37 -5 74
-6 82 -3 18 7 20 -4 7 -25 -6 -9 -59 -17 -187 -27 -228 -17 -215 -18 -243 18
-24 30 -24 31 -5 45 15 12 43 14 149 8 72 -3 160 -11 197 -16z m233 -24 c103
-21 131 -30 117 -39 -6 -4 -38 -2 -69 3 -32 6 -84 13 -115 16 -54 6 -57 8 -47
26 7 14 16 18 27 14 9 -3 49 -13 87 -20z m247 0 c20 -14 42 -25 47 -25 18 0
13 -9 -51 -86 -70 -85 -82 -94 -132 -94 -41 0 -41 -1 -21 63 13 42 44 91 95
148 20 23 20 23 62 -6z m-257 -55 c50 -5 94 -10 98 -10 5 0 5 -5 1 -11 -5 -9
-39 -10 -117 -6 -61 4 -112 8 -114 10 -10 10 11 37 26 33 9 -3 57 -10 106 -16z
m-157 -7 c-2 -12 -21 -20 -63 -29 -33 -6 -94 -19 -135 -29 -68 -16 -130 -29
-186 -41 -11 -2 -29 3 -40 11 -18 14 -18 16 -1 26 9 5 25 18 35 28 14 15 44
21 166 30 83 6 152 14 155 16 2 3 20 5 38 5 27 0 34 -4 31 -17z m582 -114 l36
-104 -98 -47 c-87 -42 -99 -46 -105 -30 -3 9 -18 45 -34 80 l-29 63 72 84 c70
81 73 83 97 70 20 -10 33 -36 61 -116z m-435 65 l90 -8 -55 -7 c-30 -4 -81 -7
-112 -8 -52 -1 -58 1 -58 19 0 16 5 19 23 16 12 -3 63 -8 112 -12z m-157 -11
c-2 -9 -20 -22 -43 -29 -22 -7 -94 -29 -160 -49 -168 -51 -188 -58 -202 -68
-6 -4 -14 -4 -18 2 -5 8 7 34 31 70 3 3 71 19 288 66 39 9 72 18 75 20 11 12
32 3 29 -12z m230 -50 c-2 -22 -8 -28 -28 -29 -14 -1 -61 -3 -105 -5 -75 -3
-80 -2 -77 16 2 11 5 21 7 23 1 1 44 6 96 11 52 4 98 9 102 10 5 0 7 -11 5
-26z m-238 -18 c0 -14 -6 -27 -12 -29 -7 -2 -87 -32 -179 -65 -146 -54 -209
-71 -209 -56 0 2 5 15 12 29 9 21 28 31 97 52 47 14 129 40 181 59 118 41 110
40 110 10z m230 -50 c0 -21 -11 -23 -113 -27 -77 -3 -87 -1 -87 14 0 15 13 18
93 21 50 1 95 4 100 5 4 1 7 -5 7 -13z m100 -83 l0 -98 -40 4 -40 4 1 89 c2
94 3 95 57 98 21 1 22 -2 22 -97z m58 11 l30 -73 -31 -15 c-16 -8 -31 -15 -31
-15 -1 0 -2 41 -2 90 -1 50 0 89 1 88 1 -2 16 -36 33 -75z m-384 51 c4 -9 5
-18 4 -19 -2 -1 -79 -41 -172 -88 -135 -69 -173 -84 -191 -77 -17 7 -21 14
-18 34 7 34 11 36 133 80 58 21 132 48 165 61 73 29 71 29 79 9z m226 -38 c0
-15 -61 -32 -124 -35 -22 -1 -43 -4 -47 -6 -7 -5 -22 25 -16 32 3 3 120 18
170 22 9 0 17 -5 17 -13z m-212 -52 c-2 -9 -50 -41 -108 -73 -58 -31 -131 -71
-162 -89 -49 -28 -88 -40 -88 -28 0 1 5 16 10 32 9 24 37 43 173 114 123 65
164 83 170 73 5 -8 7 -21 5 -29z m655 -36 c44 -141 45 -130 -15 -151 -29 -10
-58 -19 -64 -20 -6 -1 -41 35 -78 80 l-66 82 87 45 c49 24 93 45 99 45 6 1 23
-36 37 -81z m-451 17 c0 -8 1 -21 2 -27 1 -7 -32 -21 -81 -33 l-81 -21 -6 35
c-3 19 -4 37 -2 39 6 5 96 19 134 21 22 1 32 -4 34 -14z m-192 -59 c0 -32 -6
-38 -122 -115 -96 -64 -130 -81 -153 -79 -25 3 -30 8 -33 33 -3 30 2 33 145
113 81 45 151 82 156 82 4 0 7 -15 7 -34z m437 -23 c15 -21 42 -56 60 -77 l33
-40 -97 -32 c-54 -18 -99 -33 -100 -34 -2 0 -3 44 -3 98 0 93 1 100 23 110 38
18 55 13 84 -25z m-227 -7 c0 -8 -24 -23 -52 -35 -29 -12 -61 -26 -70 -31 -29
-16 -45 -11 -52 16 -4 15 -6 27 -4 29 9 7 164 42 171 38 4 -2 7 -10 7 -17z
m90 -30 c0 -38 -2 -43 -19 -39 -10 3 -26 22 -34 44 l-15 39 34 0 c34 0 34 -1
34 -44z m-70 -19 c0 -7 -38 -28 -85 -48 -67 -29 -85 -34 -89 -22 -3 7 0 16 7
18 82 29 130 49 140 60 13 14 27 10 27 -8z m-218 -12 c4 -21 -7 -34 -76 -92
-45 -37 -89 -74 -99 -82 -15 -12 -20 -13 -26 -2 -5 8 -17 11 -30 6 -17 -5 -21
-2 -21 14 0 13 25 37 81 75 44 31 84 56 87 56 4 1 21 12 37 25 37 31 42 31 47
0z m261 -76 c16 -28 26 -53 24 -55 -2 -2 -32 -15 -66 -28 l-61 -25 -45 47
c-43 46 -43 47 -22 56 12 5 40 17 62 26 45 19 68 28 75 29 3 0 18 -22 33 -50z
m36 15 c3 -16 1 -17 -13 -5 -19 16 -21 34 -3 29 6 -3 14 -13 16 -24z m357 -54
l-1 -70 -45 1 c-25 1 -57 4 -72 8 -26 6 -25 7 37 61 36 30 65 58 65 63 0 4 4
7 8 7 5 0 8 -31 8 -70z m77 -15 c20 -38 35 -70 34 -71 -1 -2 -21 0 -45 3 l-42
6 0 75 c0 44 4 72 9 67 5 -6 25 -41 44 -80z m-710 61 c7 -17 -10 -41 -102
-149 -78 -93 -94 -98 -103 -36 -4 27 2 36 55 82 32 29 76 67 96 84 41 37 47
39 54 19z m1150 -15 c8 -8 3 -10 -20 -5 -48 9 -134 -13 -165 -43 -27 -26 -28
-26 -43 -7 -21 28 -18 39 18 57 25 13 51 16 115 13 46 -2 89 -9 95 -15z m-728
-31 c-46 -21 -84 -34 -89 -29 -13 11 -12 12 69 41 102 37 112 32 20 -12z m135
37 c0 -2 -24 -23 -52 -48 -45 -38 -58 -44 -83 -39 -29 6 -26 8 50 48 85 44 85
44 85 39z m-440 -127 c0 -4 -26 -24 -57 -45 -32 -22 -78 -55 -103 -75 -61 -49
-97 -70 -104 -63 -3 4 -6 21 -6 38 0 25 14 49 63 106 34 41 73 89 86 107 l24
34 48 -48 c27 -27 49 -51 49 -54z m1020 91 c0 -5 -25 -11 -56 -13 -45 -4 -60
-10 -75 -29 -13 -17 -21 -21 -29 -13 -14 14 19 44 62 54 46 11 98 12 98 1z
m48 -39 c4 -28 -24 -40 -44 -20 -14 13 -14 17 1 32 22 21 39 16 43 -12z m57 4
c18 -13 18 -15 0 -62 -21 -55 -74 -111 -87 -91 -14 21 -8 31 32 59 31 21 40
34 40 56 0 15 -5 33 -12 40 -17 17 4 15 27 -2z m-920 -27 c4 -11 -2 -47 -13
-82 -11 -34 -23 -75 -27 -92 -6 -28 -7 -28 -17 -10 -6 11 -31 51 -56 88 -24
37 -43 69 -41 71 2 1 27 11 54 21 28 9 54 21 59 26 13 11 34 0 41 -22z m525
27 c0 -2 -16 -16 -36 -31 -29 -22 -38 -25 -45 -14 -17 26 -9 38 29 42 20 2 40
4 45 5 4 1 7 0 7 -2z m66 -7 c3 -6 1 -16 -5 -22 -9 -9 -14 -8 -21 3 -9 15 -4
30 10 30 5 0 12 -5 16 -11z m197 -10 c6 -24 46 -40 70 -27 27 14 21 -8 -9 -31
-40 -31 -88 -28 -124 9 -35 36 -34 34 -16 53 22 22 73 20 79 -4z m-143 -127
c36 -34 68 -62 73 -62 4 0 7 -7 7 -15 0 -8 -3 -15 -6 -15 -17 0 -159 139 -171
167 -20 49 -15 62 10 23 12 -19 51 -63 87 -98z m-528 48 c3 -30 6 -93 6 -140
l1 -85 -33 120 c-18 66 -36 130 -40 143 -7 22 -5 23 26 20 32 -3 33 -4 40 -58z
m570 37 c8 -13 -26 -36 -54 -37 -17 0 -38 28 -38 51 0 15 81 3 92 -14z m-157
-24 c3 -15 15 -33 25 -40 10 -7 36 -28 57 -47 21 -18 52 -45 68 -59 23 -19 27
-28 19 -37 -9 -9 -25 0 -66 37 -30 26 -80 70 -112 98 l-57 50 21 17 c26 21 36
17 45 -19z m462 -18 c18 -30 28 -55 23 -55 -13 0 -70 76 -70 94 0 29 15 17 47
-39z m-700 32 c2 -3 -23 -48 -57 -101 -33 -53 -65 -109 -71 -123 -10 -27 -10
-27 10 -9 11 10 24 15 29 12 11 -7 100 61 175 133 l47 45 0 -45 0 -44 -115
-58 c-63 -31 -115 -61 -115 -67 0 -15 0 -15 116 40 58 28 108 50 110 50 2 0 4
-31 4 -70 0 -78 -3 -81 -80 -61 -59 15 -150 23 -150 13 0 -11 115 -42 157 -42
57 0 73 -10 73 -45 l0 -33 -100 44 c-104 46 -120 50 -120 35 0 -5 30 -23 68
-40 37 -17 85 -40 107 -52 l40 -20 -40 7 c-89 14 -101 18 -137 50 -20 18 -56
46 -80 61 -23 15 -54 39 -68 53 -15 14 -47 39 -72 56 l-45 31 21 82 c11 44 24
81 27 81 5 0 20 -46 34 -100 0 -3 11 -38 23 -79 23 -71 24 -73 43 -55 17 15
19 31 19 142 l0 125 71 -6 c39 -3 73 -8 76 -10z m119 -10 c21 8 17 -13 -5 -23
-10 -5 -56 -43 -101 -84 -108 -98 -120 -104 -73 -34 22 33 52 80 67 105 26 46
27 47 63 39 19 -5 42 -6 49 -3z m-520 -95 c25 -35 43 -66 40 -69 -3 -3 -48
-23 -100 -43 -82 -32 -137 -42 -152 -27 -2 2 18 37 44 78 27 41 60 93 73 117
22 39 25 41 37 25 7 -10 34 -47 58 -81z m838 39 c-11 -43 -15 -44 -45 -15
l-29 27 28 17 c34 22 54 9 46 -29z m-190 -43 c45 -40 95 -84 111 -98 32 -26
131 -140 123 -140 -4 0 -219 139 -301 195 -13 9 -31 115 -20 115 3 0 42 -33
87 -72z m414 60 c18 -18 15 -27 -8 -21 -11 3 -20 12 -20 19 0 17 12 18 28 2z
m-1206 -30 c-10 -18 -31 -54 -48 -79 l-29 -46 -38 16 -37 16 77 62 c43 34 81
62 86 63 4 0 -1 -15 -11 -32z m1058 -3 c0 -14 0 -28 0 -32 1 -7 -62 -25 -67
-19 -1 1 3 19 9 39 9 29 16 37 35 37 18 0 23 -5 23 -25z m-1588 -100 c73 -35
125 -64 116 -65 -21 0 -98 17 -153 35 -22 8 -56 16 -75 20 -53 10 -100 26
-100 34 0 7 57 39 72 40 3 1 66 -28 140 -64z m1458 -131 c110 -67 134 -85 121
-93 -5 -3 -84 -5 -175 -3 l-166 3 0 35 c0 19 4 33 9 29 17 -10 258 -55 296
-55 17 0 17 2 5 10 -21 14 -100 34 -212 55 l-98 18 0 58 c0 32 -3 65 -6 74 -4
10 19 0 62 -29 38 -24 112 -71 164 -102z m-1535 87 c50 -12 119 -29 155 -38
36 -9 100 -17 144 -17 50 -1 70 -3 55 -8 -15 -5 -7 -6 22 -3 53 5 67 -2 40
-22 -14 -9 -27 -10 -43 -4 -13 5 -109 12 -213 15 -287 10 -288 10 -309 53 -14
29 -15 38 -4 45 15 10 34 7 153 -21z m752 -54 c-19 -31 -40 -70 -47 -87 -10
-24 -15 -28 -26 -19 -8 6 -14 16 -14 22 0 5 -11 25 -25 43 -14 18 -25 36 -25
41 0 5 19 14 43 21 23 7 60 22 82 32 22 10 41 15 43 11 1 -4 -13 -33 -31 -64z
m138 29 c62 -40 65 -45 44 -51 -52 -16 -209 -95 -209 -105 0 -5 6 -10 13 -10
15 0 165 64 212 90 l30 17 60 -55 60 -54 -45 4 c-65 7 -291 -10 -318 -24 -18
-9 -25 -9 -38 3 -13 14 -11 19 18 51 18 19 49 67 68 106 19 39 36 72 37 72 0
0 31 -20 68 -44z m-275 -72 c14 -27 33 -61 43 -75 17 -25 17 -26 -8 -37 -41
-19 -45 -15 -45 48 0 47 -3 60 -15 60 -12 0 -15 -14 -15 -65 0 -51 3 -65 15
-65 9 0 15 -9 15 -23 0 -16 26 -48 83 -103 45 -44 93 -88 106 -97 14 -9 22
-19 19 -23 -4 -3 -33 12 -65 33 -32 21 -75 47 -95 58 -30 16 -38 25 -41 55 -3
32 -5 33 -12 12 -5 -16 -10 -20 -15 -11 -11 17 -25 -14 -40 -86 -19 -97 -18
-95 -46 -85 -13 5 -24 6 -24 3 0 -4 -7 3 -16 16 -15 21 -15 24 13 59 51 65 95
133 89 139 -8 8 -60 -50 -110 -123 -20 -30 -26 -34 -27 -19 0 11 -2 29 -4 40
-14 75 -14 81 4 103 16 18 28 22 65 20 60 -4 63 14 4 27 -57 12 -59 15 -63 62
-1 21 -5 45 -9 54 -6 13 0 18 24 21 18 3 33 0 35 -6 1 -6 8 -33 14 -60 12 -49
33 -75 61 -75 11 0 9 5 -7 18 -28 24 -29 40 -2 85 21 36 13 50 -11 21 -18 -22
-30 -18 -30 10 0 14 5 25 10 25 6 0 19 9 31 21 27 27 38 21 69 -37z m-220 -24
c8 -13 -12 -16 -148 -21 -158 -6 -418 -12 -437 -10 -5 1 4 13 20 27 l30 25
263 -3 c221 -3 264 -5 272 -18z m10 -48 c0 -4 -64 -16 -142 -26 -79 -10 -152
-19 -163 -21 -213 -34 -273 -36 -289 -13 -22 35 4 40 265 50 139 5 255 11 258
13 8 8 71 5 71 -3z m10 -39 c0 -10 -589 -127 -598 -119 -3 4 3 15 14 26 17 17
68 29 189 45 17 3 62 9 100 15 39 6 102 15 140 21 39 6 72 13 74 15 8 7 81 4
81 -3z m1230 -3 c0 -4 -17 -12 -37 -19 -21 -8 -65 -27 -98 -43 -35 -17 -61
-25 -63 -19 -2 6 -28 27 -58 47 -30 20 -54 37 -54 37 0 1 70 2 155 2 85 0 155
-2 155 -5z m-550 -6 c0 -3 -11 -15 -25 -26 -14 -11 -25 -24 -25 -30 0 -6 -16
-44 -36 -84 -33 -67 -35 -77 -24 -109 18 -53 13 -59 -54 -68 -18 -2 -77 83
-180 260 l-24 41 22 6 c11 3 83 5 160 5 76 0 141 3 144 6 7 7 42 6 42 -1z
m682 -14 c29 -11 88 -37 130 -58 l77 -38 -70 -47 c-41 -28 -75 -45 -82 -40
-29 17 -217 156 -217 160 0 5 82 41 97 42 7 1 36 -8 65 -19z m-1074 -12 c20
-39 46 -81 88 -143 46 -67 78 -125 69 -125 -21 0 -44 22 -38 37 4 11 -24 45
-102 119 l-108 104 34 15 c44 19 44 19 57 -7z m460 -27 c12 -26 22 -51 22 -54
0 -4 -30 -7 -66 -7 -63 0 -65 1 -59 23 7 21 63 87 74 87 4 -1 16 -22 29 -49z
m80 32 c18 -3 39 0 46 7 12 9 23 6 55 -16 23 -15 41 -30 41 -33 0 -4 -30 -14
-67 -22 -38 -9 -74 -18 -81 -20 -7 -2 -27 20 -44 50 -31 54 -31 54 -7 47 13
-5 39 -10 57 -13z m-808 -3 c0 -5 -8 -10 -17 -10 -25 0 -117 -30 -263 -85 -69
-26 -156 -58 -195 -72 -38 -14 -76 -31 -83 -36 -10 -8 -19 -3 -37 18 l-23 30
22 22 c11 13 28 23 37 23 9 0 67 11 130 25 63 13 150 32 194 41 44 9 109 25
145 34 79 22 90 23 90 10z m-85 -94 c-39 -45 -69 -69 -98 -79 -23 -9 -115 -47
-204 -85 -155 -67 -163 -69 -178 -52 -12 13 -15 28 -11 47 6 26 19 33 179 92
94 36 213 82 262 102 50 21 94 38 98 38 5 1 -17 -28 -48 -63z m1276 43 c16
-11 29 -23 29 -27 0 -4 -14 -22 -30 -39 l-29 -33 -62 37 -61 37 48 22 c62 28
70 28 105 3z m-191 -29 c0 -5 -4 -10 -8 -10 -5 0 -39 -19 -77 -41 l-68 -41
-18 23 c-10 13 -17 28 -16 33 3 10 125 43 165 45 12 0 22 -3 22 -9z m-1042
-72 l9 -56 -39 -10 c-35 -9 -39 -8 -44 13 -4 17 4 36 28 68 18 25 34 44 35 43
1 -1 6 -27 11 -58z m1422 -36 c3 -2 -5 -12 -18 -23 -17 -13 -28 -16 -40 -9 -9
5 -45 20 -80 33 l-64 24 32 37 32 36 66 -47 c37 -26 69 -49 72 -51z m254 63
c30 -14 57 -25 60 -25 2 0 37 -15 78 -34 40 -18 90 -41 111 -49 33 -14 49 -35
30 -38 -5 -1 -17 -3 -28 -5 -19 -2 -110 -19 -165 -30 -14 -3 -48 -7 -76 -11
-49 -5 -54 -3 -106 38 -30 24 -67 53 -83 64 l-28 20 69 47 c38 26 72 47 76 48
4 0 32 -11 62 -25z m-1451 -50 c11 -16 32 -44 46 -61 45 -53 86 -106 89 -115
5 -13 -25 -22 -52 -15 -14 3 -26 16 -30 30 -5 20 -18 29 -61 42 -58 19 -63 26
-46 80 5 16 13 47 17 69 5 27 9 34 12 20 2 -11 14 -33 25 -50z m614 27 c12
-15 22 -30 23 -33 0 -7 -83 -24 -178 -37 -76 -11 -83 -3 -56 60 l17 43 86 -3
c79 -3 88 -6 108 -30z m225 26 c4 -11 -94 -138 -111 -145 -3 -2 -15 14 -26 35
l-20 37 65 42 c70 44 86 50 92 31z m73 -18 c8 -13 -1 -13 -26 0 -10 6 -19 15
-19 21 0 11 35 -5 45 -21z m-39 -34 c4 -10 -51 -113 -83 -155 -2 -3 -13 5 -24
16 l-21 21 53 65 c57 69 66 76 75 53z m-793 -24 c23 -16 72 -46 109 -66 74
-41 81 -47 73 -68 -4 -10 -22 -14 -55 -14 -28 0 -50 3 -50 6 0 4 -29 42 -65
85 -83 99 -84 106 -12 57z m970 -14 c92 -34 95 -38 79 -95 l-7 -22 -79 35
c-88 38 -103 48 -130 95 l-19 32 34 -6 c19 -4 73 -22 122 -39z m-1374 0 c18
-49 21 -78 10 -78 -6 0 -82 -38 -169 -85 -87 -47 -167 -85 -179 -85 -25 0 -28
7 -34 72 l-4 47 41 16 c52 20 66 26 206 85 63 27 116 49 118 50 1 0 6 -10 11
-22z m1005 -38 c14 -22 26 -41 26 -43 0 -4 -22 -8 -120 -23 -8 -1 -48 -7 -88
-14 -40 -6 -78 -10 -85 -7 -7 2 -12 22 -13 45 0 38 2 42 25 42 24 0 113 15
181 30 19 4 38 8 41 9 4 1 18 -17 33 -39z m601 0 c30 -22 55 -42 55 -44 0 -2
-36 10 -79 27 -74 30 -78 33 -58 44 12 7 23 12 25 13 2 0 27 -18 57 -40z
m-387 -74 l-25 -77 -26 21 c-15 12 -27 26 -27 32 0 6 16 37 36 70 32 52 38 58
51 45 13 -13 12 -24 -9 -91z m-1083 83 c9 -14 7 -15 -47 -23 -58 -9 -65 8 -10
22 50 13 50 13 57 1z m1391 -27 c5 -5 50 -24 99 -42 50 -18 93 -36 97 -39 4
-4 3 -20 -4 -37 l-11 -30 -56 18 c-31 10 -65 23 -76 28 -11 5 -37 14 -57 20
-36 11 -38 14 -38 51 0 31 4 39 18 39 10 0 22 -4 28 -8z m574 -9 c0 -38 32
-397 35 -404 6 -9 -67 0 -76 10 -3 3 -2 47 2 96 5 50 11 138 15 198 3 59 10
107 15 107 5 0 9 -3 9 -7z m-1951 -7 c-2 -2 -71 -54 -154 -117 -82 -62 -172
-130 -198 -151 -27 -21 -54 -38 -61 -38 -7 0 -19 24 -28 53 l-14 54 65 34 c36
19 116 61 176 94 64 35 129 62 155 66 25 3 49 7 54 8 5 0 7 -1 5 -3z m1171
-39 c0 -12 -8 -46 -17 -78 l-17 -56 -33 19 c-18 11 -33 22 -33 24 0 2 9 33 21
68 21 64 21 64 50 54 20 -7 29 -17 29 -31z m840 -42 c13 -66 66 -273 76 -299
5 -12 0 -16 -20 -17 -14 -1 -32 -2 -38 -3 -9 -1 -16 37 -24 129 -7 72 -15 164
-19 205 -7 87 6 79 25 -15z m-2036 -37 c-60 -62 -148 -154 -195 -204 -85 -91
-86 -91 -125 -85 -40 6 -40 6 -36 64 2 16 42 53 153 137 82 63 175 134 206
158 32 24 65 42 81 42 23 0 14 -13 -84 -112z m1928 53 l-4 -59 -36 -6 c-68
-12 -192 -18 -236 -12 l-44 7 10 33 10 33 127 22 c102 18 176 35 176 40 0 1
-2 -26 -3 -58z m-1762 29 c0 -5 -4 -10 -8 -12 -6 -2 -94 -109 -179 -218 -6 -8
-27 -33 -45 -56 -18 -22 -46 -58 -63 -79 -66 -84 -77 -95 -100 -95 -18 0 -25
7 -30 31 -7 31 14 58 130 174 17 17 81 85 143 151 87 94 118 121 133 117 10
-3 19 -9 19 -13z m32 -27 c-11 -16 -44 -60 -74 -99 -29 -38 -104 -139 -167
-222 -101 -135 -141 -175 -141 -142 0 11 60 91 154 208 72 89 103 129 166 211
30 39 61 71 68 71 9 0 8 -8 -6 -27z m752 12 c19 -15 17 -27 -7 -31 -7 -2 -68
-17 -135 -34 -134 -33 -162 -32 -162 5 0 24 14 32 66 40 75 9 157 25 162 30
10 10 57 4 76 -10z m310 0 c11 -8 31 -15 44 -15 20 0 23 -4 18 -22 -3 -13 -13
-53 -22 -90 l-17 -66 -47 26 -47 26 19 58 c10 32 18 60 18 63 0 3 0 12 0 20 0
19 9 19 34 0z m930 -297 l26 -58 -24 0 c-37 0 -53 23 -70 97 -8 38 -28 112
-44 165 -16 54 -27 100 -24 102 2 3 28 -52 57 -122 29 -70 64 -153 79 -184z
m-1934 262 c21 -21 25 -41 13 -54 -4 -4 -13 -24 -19 -44 -7 -20 -38 -109 -69
-197 -31 -88 -61 -176 -67 -195 -9 -32 -32 -60 -49 -60 -16 0 -16 58 1 95 10
22 32 74 50 115 18 41 43 98 56 127 13 28 24 54 24 57 0 2 14 34 30 69 34 74
35 78 17 71 -15 -5 -29 -35 -123 -249 -119 -275 -121 -278 -145 -249 -11 14
-7 29 32 103 25 47 85 164 135 258 49 95 90 173 92 173 1 0 11 -9 22 -20z
m1870 -17 c23 -44 44 -78 120 -200 30 -48 56 -90 57 -93 2 -3 -12 -5 -31 -6
-29 0 -35 4 -46 35 -7 20 -39 92 -71 160 -33 68 -59 127 -59 132 0 18 10 8 30
-28z m-1843 -263 c-82 -252 -84 -255 -120 -275 -29 -16 -39 -17 -49 -7 -10 10
-10 14 -1 20 7 5 19 28 27 53 8 24 39 116 71 204 31 88 58 167 60 175 2 8 8
29 13 45 5 17 7 36 4 44 -3 10 0 12 12 8 10 -4 24 0 34 9 15 15 17 15 24 -2 6
-13 -18 -98 -75 -274z m1122 264 c2 -1 -6 -32 -18 -68 -12 -36 -21 -72 -21
-81 0 -15 -17 -19 -43 -9 -14 5 -10 27 29 162 3 12 38 9 53 -4z m-372 -19 c18
-15 23 -24 14 -25 -21 0 -244 -71 -255 -81 -11 -10 -97 32 -93 45 2 6 19 14
38 18 19 4 84 21 144 37 61 16 113 30 117 30 4 1 20 -10 35 -24z m1366 -139
c86 -72 154 -133 151 -137 -12 -20 -66 19 -201 146 -81 76 -150 144 -152 149
-5 12 7 3 202 -158z m-913 129 c14 -8 38 -14 53 -15 22 0 27 -4 23 -17 -37
-112 -53 -148 -66 -146 -8 1 -37 8 -63 14 -42 11 -48 15 -42 33 3 12 13 46 22
76 22 79 25 82 73 55z m423 -142 l-6 -123 -26 7 c-14 3 -27 6 -27 7 -2 1 8 78
22 183 3 28 11 43 22 46 9 2 18 3 19 3 1 -1 -1 -56 -4 -123z m556 -126 c0 -5
-9 -7 -22 -5 -15 2 -57 42 -117 113 -138 161 -138 163 7 25 71 -69 131 -129
132 -133z m-813 232 c24 -6 44 -14 44 -17 0 -3 -14 -43 -31 -88 l-31 -82 -45
13 c-25 8 -47 15 -49 18 -2 2 7 32 20 68 13 35 27 72 30 82 6 20 5 20 62 6z
m547 -1 c3 -7 46 -62 96 -122 50 -60 90 -111 88 -112 -2 -2 -13 -1 -26 3 -15
4 -49 46 -102 124 -43 66 -75 119 -70 119 5 0 11 -6 14 -12z m-1066 -21 c12
-12 2 -19 -69 -50 -46 -20 -105 -47 -132 -60 -44 -21 -52 -22 -95 -11 -36 9
-45 15 -43 30 5 28 7 29 137 73 123 42 174 46 202 18z m634 -8 c-5 -13 -19
-57 -31 -96 -19 -65 -24 -73 -46 -73 -13 0 -24 3 -24 6 0 4 15 46 33 95 24 67
37 89 52 92 27 4 27 3 16 -24z m74 -26 c-4 -32 -11 -76 -15 -97 -5 -22 -7 -44
-4 -48 3 -4 -15 -8 -40 -8 l-44 0 17 48 c10 26 23 69 30 97 12 49 24 65 49 65
10 0 12 -13 7 -57z m-1703 20 c-11 -16 -41 -68 -67 -118 -27 -49 -65 -120 -87
-157 -21 -36 -38 -71 -38 -77 0 -12 -2 -13 -40 -15 -55 -3 -43 20 169 304 15
19 34 47 44 63 10 15 22 27 28 27 6 0 2 -12 -9 -27z m1087 -39 l49 -27 -76
-39 c-43 -22 -100 -53 -128 -69 -44 -25 -57 -28 -101 -22 -45 5 -52 9 -56 32
-3 14 -2 27 1 29 4 1 63 29 132 61 69 33 126 60 128 60 1 1 24 -11 51 -25z
m1325 -78 c108 -69 116 -76 85 -76 -27 0 -53 16 -129 76 -153 122 -147 122 44
0z m-1210 25 c3 -4 -21 -31 -53 -59 -32 -28 -80 -71 -107 -96 -42 -39 -55 -46
-91 -46 -45 0 -47 2 -56 41 -6 24 0 29 126 96 126 68 169 83 181 64z m113 -33
l45 -11 -124 -117 c-91 -87 -126 -115 -135 -108 -7 6 -28 7 -48 4 -31 -6 -35
-4 -41 20 -6 23 0 32 42 68 27 22 80 69 117 104 45 43 73 62 84 58 8 -4 36
-11 60 -18z m163 -55 c2 -2 -50 -58 -115 -124 l-120 -121 -49 6 c-74 8 -77 18
-20 73 28 26 86 83 131 125 l80 77 44 -16 c24 -9 46 -18 49 -20z m1510 -26
c-48 -47 -64 -55 -125 -70 -136 -31 -134 -31 -239 0 -12 3 -16 1 -12 -6 4 -6
2 -11 -5 -11 -21 0 1 -15 24 -16 12 -1 56 -11 97 -22 232 -65 211 -62 307 -41
48 11 92 18 97 16 5 -2 -16 -15 -46 -30 -42 -21 -70 -27 -119 -27 -35 0 -94
-5 -131 -10 -65 -10 -68 -9 -128 25 -34 19 -78 48 -98 65 -24 20 -38 26 -43
18 -5 -7 -21 -2 -50 17 -24 15 -62 38 -84 51 l-40 23 31 1 c18 0 44 -10 60
-22 22 -18 27 -19 21 -6 -11 31 22 38 66 15 35 -18 50 -19 170 -13 132 7 132
7 212 51 44 24 82 44 85 44 3 0 -20 -23 -50 -52z m-1435 13 c8 0 -26 -60 -78
-139 l-92 -138 -54 -7 c-39 -6 -57 -4 -67 6 -11 11 10 36 119 150 77 80 138
136 145 133 8 -3 20 -5 27 -5z m115 -14 c0 -1 -27 -69 -59 -150 l-59 -149 -57
-20 -57 -19 -26 27 c-15 16 -21 30 -15 34 6 3 50 65 98 136 110 164 98 152
140 147 19 -2 35 -5 35 -6z m85 -40 c-15 -75 -45 -263 -45 -289 0 -32 24 -33
26 -1 1 10 8 51 14 89 7 39 18 104 24 145 l11 75 38 3 37 3 0 -183 -1 -183
-29 -34 -28 -33 -47 46 c-52 51 -56 52 -88 31 -22 -14 -25 -13 -56 31 -20 29
-29 50 -23 57 5 7 19 41 32 77 13 36 26 70 30 75 3 6 17 37 30 71 22 57 25 60
53 56 27 -4 28 -7 22 -36z m225 16 c0 -33 26 -224 50 -362 7 -40 6 -65 -3 -92
l-13 -36 -39 35 c-22 20 -50 42 -62 50 -23 15 -23 19 -23 214 l0 199 45 0 c25
0 45 -3 45 -8z m130 -42 c11 -25 58 -148 106 -273 78 -206 85 -231 73 -253 -7
-13 -17 -24 -22 -24 -6 0 -38 26 -71 58 -34 32 -77 71 -97 87 -32 26 -37 37
-43 90 -12 96 -13 106 -26 185 -6 41 -14 99 -17 128 l-6 53 42 -3 c40 -3 44
-6 61 -48z m236 -266 c85 -174 153 -318 152 -320 -2 -1 -39 16 -83 39 l-80 43
-52 134 c-28 74 -76 199 -106 278 l-55 142 35 0 34 0 155 -316z m91 96 c90
-118 171 -226 181 -240 9 -14 40 -58 69 -97 29 -40 53 -75 53 -78 0 -3 -17 5
-37 18 -21 13 -58 35 -83 49 -25 14 -71 40 -103 58 l-58 33 -120 239 c-117
234 -119 239 -92 236 22 -2 56 -40 190 -218z m-23 154 c32 -36 56 -67 54 -69
-3 -3 -38 26 -79 65 -57 53 -69 69 -53 70 13 0 41 -23 78 -66z m71 -14 c22
-15 72 -44 110 -64 39 -20 133 -75 210 -121 107 -65 153 -87 195 -94 30 -5 46
-10 35 -11 -11 -1 -24 -1 -30 0 -34 7 -306 62 -332 67 -24 4 -53 29 -125 111
-149 169 -149 169 -63 112z m-51 -57 c34 -31 96 -90 138 -130 43 -40 81 -73
86 -73 8 0 258 -153 270 -165 3 -2 -69 21 -160 51 l-164 55 -84 112 c-47 62
-89 117 -95 123 -5 7 -17 20 -25 31 -8 10 -21 26 -29 36 -28 36 5 15 63 -40z"/>
<path d="M2230 5260 c0 -5 7 -10 15 -10 8 0 15 5 15 10 0 6 -7 10 -15 10 -8 0
-15 -4 -15 -10z"/>
</g>
</svg>
