<?xml version="1.0" standalone="no"?>
<!DOCTYPE svg PUBLIC "-//W3C//DTD SVG 20010904//EN"
 "http://www.w3.org/TR/2001/REC-SVG-20010904/DTD/svg10.dtd">
<svg version="1.0" xmlns="http://www.w3.org/2000/svg"
 width="741.000000pt" height="741.000000pt" viewBox="0 0 741.000000 741.000000"
 preserveAspectRatio="xMidYMid meet">
<metadata>
Created by potrace 1.16, written by Peter Selinger 2001-2019
</metadata>
<g transform="translate(0.000000,741.000000) scale(0.100000,-0.100000)"
fill="#000000" stroke="none">
<path d="M1978 6733 c-73 -87 -74 -89 -106 -208 -34 -125 -35 -158 -6 -295 13
-61 -28 24 -84 176 -47 127 -61 181 -72 267 -14 117 -26 138 -63 118 -69 -37
-67 -33 -83 -224 l-15 -177 30 -111 c16 -61 27 -108 23 -104 -4 3 -79 106
-167 228 -135 187 -164 222 -185 222 l-25 0 -3 -119 -3 -119 47 -91 c26 -50
70 -134 97 -186 l51 -95 -217 210 c-119 116 -225 210 -234 210 -10 0 -19 -8
-21 -17 -2 -13 151 -321 216 -432 3 -5 -47 19 -112 53 -175 94 -196 75 -85
-76 40 -54 89 -121 110 -149 l38 -51 -79 19 c-83 21 -110 19 -110 -7 0 -9 34
-70 75 -136 41 -67 75 -123 75 -125 0 -2 -35 -4 -77 -6 -71 -3 -78 -5 -81 -24
-2 -13 18 -53 48 -100 28 -42 47 -81 43 -85 -4 -4 -30 -9 -58 -11 -73 -4 -71
-26 9 -123 l64 -79 -35 -21 c-62 -35 -64 -48 -12 -102 89 -94 87 -82 14 -138
-80 -60 -84 -83 -25 -120 26 -16 38 -30 34 -38 -4 -7 -20 -31 -36 -54 -37 -55
-37 -88 2 -108 l29 -15 -21 -55 c-23 -61 -15 -85 28 -85 28 0 29 -3 8 -64 -9
-26 -13 -51 -8 -55 5 -4 30 -15 56 -25 l46 -17 -24 -61 c-14 -33 -24 -70 -22
-82 3 -19 8 -21 60 -18 l57 3 3 -63 3 -63 53 0 52 0 0 -63 c0 -71 10 -81 61
-63 18 6 34 9 36 7 2 -2 9 -43 15 -91 12 -84 13 -88 45 -103 33 -16 38 -29 45
-132 l3 -35 75 -1 c91 -1 154 -22 158 -52 2 -12 15 -31 30 -43 21 -17 23 -20
7 -16 -11 3 -108 20 -215 37 -218 35 -207 31 -542 194 l-196 96 -99 -47 c-103
-51 -119 -69 -87 -104 15 -16 15 -19 2 -19 -9 0 -26 -8 -39 -19 l-23 -18 37
-81 c20 -45 37 -83 37 -86 0 -3 -27 -24 -60 -46 -65 -44 -72 -61 -38 -97 l22
-23 -27 -28 c-30 -31 -34 -47 -14 -59 7 -4 25 -24 40 -44 l26 -35 -24 -37
c-30 -44 -30 -45 -3 -74 l21 -23 -21 -23 c-12 -13 -22 -27 -22 -31 0 -4 22
-33 49 -63 l49 -55 -20 -59 -20 -60 47 -42 c27 -23 54 -46 61 -50 10 -6 14
-33 14 -96 0 -97 2 -101 65 -121 22 -7 44 -16 49 -21 5 -5 19 -46 30 -91 19
-75 24 -85 56 -103 l35 -20 -9 -52 c-5 -28 -6 -59 -3 -67 6 -16 11 -17 108
-36 l56 -11 14 -62 14 -62 50 -12 c34 -9 56 -22 73 -43 18 -23 32 -30 57 -30
27 0 37 -6 55 -35 12 -19 25 -35 28 -35 4 1 27 5 51 9 42 8 44 7 78 -30 39
-43 52 -47 88 -23 24 16 25 15 35 -12 17 -50 27 -59 58 -58 22 1 32 -3 35 -17
8 -30 44 -23 142 29 l89 47 47 145 c27 80 94 286 149 458 85 261 105 312 118
308 67 -20 69 -19 101 27 24 36 39 47 75 56 62 15 64 15 62 -20 -1 -29 3 -33
39 -43 l40 -12 3 -58 c3 -57 3 -58 43 -74 32 -12 39 -20 39 -43 0 -33 18 -47
101 -80 l61 -24 -6 -47 c-6 -42 -4 -49 16 -61 13 -8 46 -20 73 -26 94 -22 103
-28 122 -90 l18 -56 81 -9 81 -8 13 -57 c20 -92 21 -93 102 -89 l71 3 16 -55
17 -55 84 -5 84 -5 26 -45 26 -45 74 -5 74 -5 30 -52 c17 -28 34 -54 37 -58 3
-3 41 2 85 10 43 8 82 15 86 15 4 0 28 -27 54 -60 26 -33 55 -60 64 -60 10 0
61 16 114 35 53 19 100 35 104 35 4 0 28 -34 55 -75 26 -41 54 -75 61 -75 7 0
35 12 62 27 l48 27 75 -82 c42 -45 83 -82 93 -82 9 0 33 22 53 50 20 27 39 50
42 50 3 0 57 -44 120 -98 64 -53 121 -101 128 -106 24 -18 45 3 61 63 l17 59
165 -149 c91 -82 173 -149 183 -149 10 0 32 20 50 45 18 25 35 45 37 45 3 0
79 -38 170 -85 165 -85 198 -97 208 -71 3 8 -20 64 -51 126 -31 62 -55 113
-53 115 2 2 109 -57 238 -131 129 -73 243 -134 253 -134 24 0 33 28 17 54 -8
11 -24 39 -36 61 -11 22 -60 92 -108 155 -84 112 -99 137 -73 127 101 -38 643
-207 653 -203 8 3 14 14 14 24 0 14 -67 61 -255 177 -141 87 -254 160 -251
162 2 3 99 -15 215 -38 l211 -44 117 30 c93 24 119 34 121 49 2 10 0 22 -5 26
-4 5 -84 17 -177 26 l-169 18 -109 64 c-60 36 -107 67 -104 69 3 3 92 12 198
20 l193 14 110 63 c207 120 210 122 213 144 2 12 -3 24 -10 27 -8 3 -123 -17
-255 -44 l-241 -50 -114 28 -113 27 50 11 c28 6 76 16 108 23 56 11 62 16 230
177 168 161 199 203 156 211 -8 1 -115 -51 -237 -116 l-221 -119 -93 -6 c-51
-4 -145 -9 -208 -13 l-115 -7 -35 35 c-19 20 -258 174 -530 343 -272 169 -513
320 -535 334 -22 15 -74 39 -115 54 -78 29 -400 169 -886 384 l-282 125 -49
61 c-28 34 -81 99 -118 145 l-68 83 27 55 28 56 41 -6 c40 -5 46 -2 121 58
l78 64 57 -14 c31 -7 59 -13 64 -14 4 0 7 -26 7 -58 0 -32 6 -66 13 -76 26
-36 47 -15 83 82 l35 93 -62 112 c-34 62 -67 121 -73 132 -7 11 -39 47 -71 81
-59 59 -62 61 -155 82 -69 16 -127 22 -214 22 l-120 0 -122 -70 c-107 -61
-129 -70 -173 -70 l-50 0 -42 72 c-30 52 -63 136 -110 288 -67 213 -172 527
-195 585 -7 17 -44 122 -82 235 -161 472 -205 597 -220 630 -11 26 -17 89 -23
245 l-7 210 61 252 c68 279 68 294 3 259 -77 -41 -103 -74 -185 -231 -45 -85
-81 -167 -81 -182 0 -15 -3 -46 -7 -68 l-7 -40 -13 60 c-8 33 -17 132 -22 220
-7 128 -6 177 6 247 26 150 -1 158 -109 31z m351 -1304 c79 -82 142 -152 138
-155 -6 -7 -330 242 -336 258 -3 10 38 49 49 46 3 0 70 -68 149 -149z m-25
-80 c136 -106 196 -158 201 -176 3 -14 5 -26 3 -28 -3 -2 -420 303 -435 318
-7 8 15 37 28 37 4 0 96 -68 203 -151z m-8 -101 c128 -94 237 -181 243 -194 6
-13 9 -24 6 -24 -5 0 -527 320 -539 330 -11 11 34 71 48 63 6 -3 115 -82 242
-175z m-245 -189 c158 -59 201 -79 167 -79 -18 0 -370 78 -375 84 -7 7 20 56
32 56 6 0 85 -27 176 -61z m357 -84 c45 -26 82 -49 82 -52 0 -16 -224 -272
-242 -277 -13 -3 -49 -6 -80 -6 -54 0 -58 2 -58 23 2 74 51 198 85 211 8 3 15
11 15 19 0 7 23 37 50 66 28 29 50 58 50 63 0 5 3 7 8 5 4 -2 44 -26 90 -52z
m266 -284 c32 -95 57 -173 55 -174 -38 -21 -322 -157 -324 -155 -1 2 -28 63
-59 135 l-56 133 115 140 116 140 47 -24 47 -24 59 -171z m-603 2 c-6 -36 -8
-38 -46 -39 -22 0 -100 -4 -172 -8 l-133 -8 7 34 c3 18 7 34 8 35 1 2 142 12
316 22 24 1 26 -1 20 -36z m149 -247 l0 -155 -37 5 c-84 11 -80 8 -88 79 -3
35 -3 70 1 77 4 6 7 40 6 74 -2 70 -1 71 76 73 l42 1 0 -154z m565 -82 c20
-63 33 -119 29 -126 -4 -6 -3 -9 2 -5 5 3 16 -19 25 -48 l16 -54 -99 -35 c-55
-20 -105 -36 -112 -36 -7 0 -45 42 -86 93 -40 50 -89 111 -108 134 l-34 42
159 79 c87 44 161 78 165 75 4 -2 24 -55 43 -119z m-738 -50 c-5 -6 -260 -74
-263 -71 -1 1 -5 27 -8 58 -7 56 -7 57 21 64 15 4 75 12 133 19 l105 12 8 -39
c5 -21 7 -41 4 -43z m447 -139 c52 -66 92 -122 88 -126 -7 -7 -282 -99 -295
-99 -4 0 -7 69 -7 153 l0 153 43 22 c23 11 50 20 59 19 9 -1 59 -56 112 -122z
m-426 57 c2 -13 -5 -26 -20 -36 -37 -24 -228 -97 -238 -91 -11 7 -25 74 -17
81 8 8 251 73 262 70 6 -1 11 -12 13 -24z m107 -238 c26 -47 45 -87 43 -88 -1
-2 -49 -20 -106 -41 l-103 -39 -69 69 c-39 38 -70 72 -70 75 0 4 30 19 68 35
37 15 92 39 122 51 30 13 58 24 62 24 3 0 27 -39 53 -86z m641 -172 c-3 -2
-54 2 -113 9 l-108 14 110 97 110 97 3 -106 c1 -58 0 -108 -2 -111z m606 -576
c70 -44 124 -82 120 -84 -8 -2 -462 85 -468 90 -1 2 -6 54 -10 117 l-7 113
119 -77 c65 -43 176 -114 246 -159z m334 -204 c5 -5 29 -14 54 -21 61 -18 352
-160 346 -170 -3 -4 -55 -40 -115 -80 -75 -50 -114 -70 -123 -64 -8 4 -95 66
-193 138 l-179 129 80 37 c80 38 112 46 130 31z m-167 -135 l53 -39 -59 -60
-60 -60 -92 57 c-50 31 -93 60 -96 64 -6 10 177 91 190 83 5 -3 34 -23 64 -45z
m-344 -36 c3 -6 -49 -42 -115 -82 -133 -80 -122 -79 -165 -6 -19 32 -30 27
130 66 138 34 142 34 150 22z m538 -115 c53 -38 96 -74 94 -80 -2 -6 -17 -18
-33 -27 -28 -16 -32 -15 -146 30 -64 25 -120 49 -123 53 -10 10 86 109 99 101
6 -3 55 -38 109 -77z m699 -46 c150 -66 277 -125 282 -130 5 -5 0 -13 -15 -19
-30 -13 -441 -91 -478 -91 -19 0 -68 31 -164 104 l-136 103 112 77 c61 42 114
76 119 76 4 0 130 -54 280 -120z m-1184 68 c-5 -13 -180 -218 -187 -218 -3 0
-21 26 -39 59 l-32 58 118 71 c105 64 118 69 130 54 7 -9 11 -20 10 -24z m49
-112 c-8 -12 -42 -65 -77 -119 l-63 -98 -33 32 -32 31 91 110 92 110 18 -23
c15 -19 16 -25 4 -43z m43 -184 c-18 -61 -36 -116 -40 -123 -6 -9 -19 -4 -49
20 -23 18 -41 39 -41 47 0 8 28 57 61 110 l62 96 20 -21 20 -20 -33 -109z
m632 17 c101 -39 188 -73 194 -76 9 -3 7 -18 -4 -53 -18 -57 -12 -57 -152 -8
-47 16 -120 41 -163 56 -68 23 -77 29 -73 47 3 11 6 39 6 63 0 23 2 42 5 42 3
0 87 -32 187 -71z m734 -30 c-3 -17 -6 -55 -6 -84 l0 -52 -82 -17 c-130 -25
-227 -30 -331 -16 l-95 12 15 47 c9 25 17 48 19 50 5 5 433 88 463 90 21 1 23
-2 17 -30z m-863 -109 c8 -7 -58 -245 -73 -263 -3 -4 -21 -2 -38 4 -23 8 -31
16 -28 28 3 9 14 54 26 101 44 175 36 160 73 148 17 -6 36 -14 40 -18z m1233
-260 c55 -124 97 -227 92 -229 -5 -1 -28 0 -51 3 l-43 7 -58 227 c-33 125 -61
236 -63 247 -5 29 8 3 123 -255z m172 198 c2 -4 115 -98 253 -209 137 -111
246 -205 243 -210 -3 -5 -24 -9 -47 -8 -41 0 -47 5 -292 245 -155 153 -233
235 -205 217 25 -15 46 -31 48 -35z m-1275 18 c34 -14 79 -28 100 -31 20 -4
37 -9 37 -12 0 -12 -83 -239 -90 -246 -4 -5 -50 3 -102 18 l-94 27 40 134 c23
74 42 134 44 134 2 0 31 -11 65 -24z m1206 -205 c78 -121 141 -222 141 -225 0
-3 -19 -6 -42 -8 l-43 -3 -58 130 c-123 274 -146 325 -142 325 1 0 66 -99 144
-219z m396 -243 c-14 -3 -33 -4 -42 -1 -15 4 -226 249 -333 386 -13 18 71 -60
188 -173 196 -189 210 -205 187 -212z m-1314 381 c38 -7 69 -15 69 -19 0 -8
-99 -272 -103 -277 -7 -6 -149 43 -148 52 2 35 88 255 99 255 7 0 44 -5 83
-11z m309 -16 c0 -10 -10 -87 -22 -170 l-21 -153 -36 1 c-85 2 -84 -5 -31 167
25 85 53 158 61 163 23 15 49 10 49 -8z m-122 -5 c-3 -7 -24 -77 -48 -155 -41
-136 -45 -143 -69 -143 -14 0 -31 4 -37 8 -17 11 88 284 112 293 30 12 47 10
42 -3z m861 -169 c84 -100 150 -183 149 -184 -2 -2 -21 0 -42 4 -38 6 -43 12
-143 166 -116 179 -126 195 -119 195 2 0 72 -82 155 -181z m514 -113 l97 -61
-50 -3 -50 -3 -155 127 c-85 69 -155 128 -155 130 0 3 92 -52 313 -190z"/>
</g>
</svg>
